# xmcd
#
# Track frame offsets:
#	150
#	16656
#	36878
#	52445
#	68414
#	84269
#	99248
#	112964
#	130916
#	147282
#	163111
#	187822
#	213428
#	241115
#	269466
#	307284
#
# Disc length: 4568 seconds
#
# Revision: 1
# Processed by: cddbd v1.5.1PL0 Copyright (c) Steve Scherf et al.
# Submitted via: audiograbber 1.83.01
#
DISCID=d711d610
DTITLE=Various Artist - С музыкой в дорогу 2003.
DYEAR=1900
DGENRE=
TTITLE0=The Venture. - Amazonia's Cry. (Tranz Mix)
TTITLE1=Aquagen. - Destination Dance.
TTITLE2=Transer. - Possession.
TTITLE3=Rainmaker. - Renegade Master.
TTITLE4=Dj Melvin. - Set You Free.
TTITLE5=Ian Van Dahl. - Castles In The Sky.
TTITLE6=Dario G meets Mythos 'N' Dj Cosmo. - Heaven Is Closer. (Dario G Radio E
TTITLE6=dit)
TTITLE7=ATB. - Another Dimension.
TTITLE8=Deejay Hyde. - Just A Moment.
TTITLE9=Grenada. - Superstar.
TTITLE10=Antique. - See You Body Free. 
TTITLE11=Dreunkemunky vs. Eminem. - Without E. (Sioost Bootleg Mix)
TTITLE12=Britney Spears. - Overprotected. (JS16 Rmx)
TTITLE13=Dj Antonie vs. Mad Mark. - Baby Let Me Tell You. (Bassline Mix)
TTITLE14=Sylver. - Skin. (Velvet Girl Rmx)
TTITLE15=Madonna. - Die Another Day. (Brother Brown's Bond-Age Club)
EXTD=
EXTT0=
EXTT1=
EXTT2=
EXTT3=
EXTT4=
EXTT5=
EXTT6=
EXTT7=
EXTT8=
EXTT9=
EXTT10=
EXTT11=
EXTT12=
EXTT13=
EXTT14=
EXTT15=
PLAYORDER=
